<svg xmlns="http://www.w3.org/2000/svg" viewBox="0 0 400 533" width="400" height="533">
  <rect width="400" height="533" fill="#FAF8F5"/>
  <rect x="20" y="20" width="360" height="493" fill="#F5F0E8" stroke="#E5DDD4" stroke-width="1"/>
  <!-- Staff 1 -->
  <g stroke="#3D3630" stroke-width="1.5">
    <line x1="40" y1="100" x2="360" y2="100"/>
    <line x1="40" y1="140" x2="360" y2="140"/>
    <line x1="40" y1="180" x2="360" y2="180"/>
    <line x1="40" y1="220" x2="360" y2="220"/>
    <line x1="40" y1="260" x2="360" y2="260"/>
  </g>
  <!-- Bass clef shape -->
  <ellipse cx="65" cy="180" rx="12" ry="14" fill="none" stroke="#3D3630" stroke-width="2"/>
  <ellipse cx="65" cy="220" rx="10" ry="12" fill="none" stroke="#3D3630" stroke-width="2"/>
  <!-- Notes -->
  <ellipse cx="130" cy="140" rx="6" ry="8" fill="#3D3630"/>
  <line x1="136" y1="140" x2="136" y2="80" stroke="#3D3630" stroke-width="2"/>
  <ellipse cx="180" cy="220" rx="6" ry="8" fill="#3D3630"/>
  <line x1="186" y1="220" x2="186" y2="160" stroke="#3D3630" stroke-width="2"/>
  <ellipse cx="230" cy="180" rx="6" ry="8" fill="#3D3630"/>
  <line x1="236" y1="180" x2="236" y2="120" stroke="#3D3630" stroke-width="2"/>
  <ellipse cx="280" cy="260" rx="6" ry="8" fill="#3D3630"/>
  <line x1="286" y1="260" x2="286" y2="200" stroke="#3D3630" stroke-width="2"/>
  <!-- Staff 2 -->
  <g stroke="#3D3630" stroke-width="1.5">
    <line x1="40" y1="320" x2="360" y2="320"/>
    <line x1="40" y1="360" x2="360" y2="360"/>
    <line x1="40" y1="400" x2="360" y2="400"/>
    <line x1="40" y1="440" x2="360" y2="440"/>
    <line x1="40" y1="480" x2="360" y2="480"/>
  </g>
  <ellipse cx="110" cy="400" rx="6" ry="8" fill="#3D3630"/>
  <line x1="116" y1="400" x2="116" y2="340" stroke="#3D3630" stroke-width="2"/>
  <ellipse cx="170" cy="360" rx="6" ry="8" fill="#3D3630"/>
  <line x1="176" y1="360" x2="176" y2="300" stroke="#3D3630" stroke-width="2"/>
  <ellipse cx="230" cy="440" rx="6" ry="8" fill="#3D3630"/>
  <line x1="236" y1="440" x2="236" y2="380" stroke="#3D3630" stroke-width="2"/>
</svg>
