<svg xmlns="http://www.w3.org/2000/svg" viewBox="0 0 400 533" width="400" height="533">
  <rect width="400" height="533" fill="#F5F0E8"/>
  <rect x="20" y="20" width="360" height="493" fill="#EDE6DC" stroke="#E5DDD4" stroke-width="1"/>
  <!-- Staff lines -->
  <g stroke="#3D3630" stroke-width="1.5">
    <line x1="40" y1="120" x2="360" y2="120"/>
    <line x1="40" y1="160" x2="360" y2="160"/>
    <line x1="40" y1="200" x2="360" y2="200"/>
    <line x1="40" y1="240" x2="360" y2="240"/>
    <line x1="40" y1="280" x2="360" y2="280"/>
  </g>
  <!-- Treble clef (simplified) -->
  <path d="M60 100 Q70 180 55 260 Q50 280 60 300" fill="none" stroke="#3D3630" stroke-width="3"/>
  <ellipse cx="55" cy="305" rx="8" ry="6" fill="#3D3630"/>
  <!-- Quarter notes -->
  <ellipse cx="120" cy="200" rx="6" ry="8" fill="#3D3630"/>
  <line x1="126" y1="200" x2="126" y2="140" stroke="#3D3630" stroke-width="2"/>
  <ellipse cx="160" cy="240" rx="6" ry="8" fill="#3D3630"/>
  <line x1="166" y1="240" x2="166" y2="180" stroke="#3D3630" stroke-width="2"/>
  <ellipse cx="200" cy="200" rx="6" ry="8" fill="#3D3630"/>
  <line x1="206" y1="200" x2="206" y2="140" stroke="#3D3630" stroke-width="2"/>
  <ellipse cx="240" cy="280" rx="6" ry="8" fill="#3D3630"/>
  <line x1="246" y1="280" x2="246" y2="220" stroke="#3D3630" stroke-width="2"/>
  <!-- Second staff -->
  <g stroke="#3D3630" stroke-width="1.5">
    <line x1="40" y1="340" x2="360" y2="340"/>
    <line x1="40" y1="380" x2="360" y2="380"/>
    <line x1="40" y1="420" x2="360" y2="420"/>
    <line x1="40" y1="460" x2="360" y2="460"/>
    <line x1="40" y1="500" x2="360" y2="500"/>
  </g>
  <ellipse cx="100" cy="420" rx="6" ry="8" fill="#3D3630"/>
  <line x1="106" y1="420" x2="106" y2="360" stroke="#3D3630" stroke-width="2"/>
  <ellipse cx="140" cy="380" rx="6" ry="8" fill="#3D3630"/>
  <line x1="146" y1="380" x2="146" y2="320" stroke="#3D3630" stroke-width="2"/>
</svg>
