<svg xmlns="http://www.w3.org/2000/svg" viewBox="0 0 400 533" width="400" height="533">
  <rect width="400" height="533" fill="#EDE6DC"/>
  <rect x="20" y="20" width="360" height="493" fill="#F5F0E8" stroke="#E5DDD4" stroke-width="1"/>
  <!-- Grand staff -->
  <g stroke="#3D3630" stroke-width="1.5">
    <line x1="40" y1="90" x2="360" y2="90"/>
    <line x1="40" y1="125" x2="360" y2="125"/>
    <line x1="40" y1="160" x2="360" y2="160"/>
    <line x1="40" y1="195" x2="360" y2="195"/>
    <line x1="40" y1="230" x2="360" y2="230"/>
    <line x1="40" y1="270" x2="360" y2="270"/>
    <line x1="40" y1="305" x2="360" y2="305"/>
    <line x1="40" y1="340" x2="360" y2="340"/>
    <line x1="40" y1="375" x2="360" y2="375"/>
    <line x1="40" y1="410" x2="360" y2="410"/>
  </g>
  <!-- Treble clef area -->
  <path d="M55 85 Q65 160 50 235 Q45 255 55 275" fill="none" stroke="#3D3630" stroke-width="2.5"/>
  <ellipse cx="50" cy="280" rx="7" ry="5" fill="#3D3630"/>
  <!-- Notes on treble -->
  <ellipse cx="115" cy="160" rx="5" ry="7" fill="#3D3630"/>
  <line x1="120" y1="160" x2="120" y2="100" stroke="#3D3630" stroke-width="1.5"/>
  <ellipse cx="155" cy="195" rx="5" ry="7" fill="#3D3630"/>
  <line x1="160" y1="195" x2="160" y2="135" stroke="#3D3630" stroke-width="1.5"/>
  <ellipse cx="195" cy="160" rx="5" ry="7" fill="#3D3630"/>
  <line x1="200" y1="160" x2="200" y2="100" stroke="#3D3630" stroke-width="1.5"/>
  <!-- Notes on bass -->
  <ellipse cx="115" cy="375" rx="5" ry="7" fill="#3D3630"/>
  <line x1="120" y1="375" x2="120" y2="315" stroke="#3D3630" stroke-width="1.5"/>
  <ellipse cx="165" cy="410" rx="5" ry="7" fill="#3D3630"/>
  <line x1="170" y1="410" x2="170" y2="350" stroke="#3D3630" stroke-width="1.5"/>
  <ellipse cx="215" cy="340" rx="5" ry="7" fill="#3D3630"/>
  <line x1="220" y1="340" x2="220" y2="280" stroke="#3D3630" stroke-width="1.5"/>
</svg>
